<svg width="17" height="16" viewBox="0 0 17 16" fill="none" xmlns="http://www.w3.org/2000/svg">
<path d="M13.4601 8.66674C13.3134 8.66674 13.1601 8.62007 13.0134 8.58674C12.7164 8.52129 12.4245 8.4344 12.1401 8.32674C11.8308 8.21423 11.4908 8.22007 11.1856 8.34315C10.8804 8.46622 10.6315 8.69783 10.4867 8.99341L10.3401 9.29341C9.69074 8.93219 9.09406 8.48356 8.56673 7.96007C8.04325 7.43275 7.59461 6.83607 7.2334 6.18674L7.5134 6.00007C7.80898 5.85535 8.04059 5.60643 8.16366 5.3012C8.28674 4.99598 8.29258 4.65602 8.18007 4.34674C8.07422 4.06169 7.98736 3.76994 7.92007 3.47341C7.88673 3.32674 7.86007 3.17341 7.84007 3.02007C7.75911 2.55049 7.51315 2.12524 7.14648 1.8209C6.77981 1.51657 6.31653 1.35315 5.84007 1.36007H3.84007C3.55275 1.35738 3.26823 1.41662 3.00587 1.53376C2.74351 1.65091 2.50947 1.82321 2.31969 2.03893C2.1299 2.25465 1.98882 2.50874 1.90606 2.78388C1.82329 3.05903 1.80079 3.34878 1.84007 3.63341C2.19523 6.42633 3.47075 9.02133 5.46517 11.0085C7.45958 12.9957 10.0592 14.2617 12.8534 14.6067H13.1067C13.5983 14.6075 14.073 14.4271 14.4401 14.1001C14.651 13.9114 14.8195 13.6802 14.9344 13.4216C15.0493 13.163 15.108 12.883 15.1067 12.6001V10.6001C15.0986 10.137 14.9299 9.69111 14.6296 9.33852C14.3293 8.98593 13.9159 8.74849 13.4601 8.66674ZM13.7934 12.6667C13.7933 12.7614 13.773 12.8549 13.7339 12.9412C13.6948 13.0274 13.6378 13.1043 13.5667 13.1667C13.4922 13.2311 13.4051 13.2791 13.311 13.3078C13.2169 13.3365 13.1178 13.3452 13.0201 13.3334C10.5233 13.0133 8.20422 11.8711 6.42854 10.0869C4.65286 8.3028 3.52167 5.9783 3.2134 3.48007C3.20279 3.38242 3.21209 3.28363 3.24074 3.18967C3.26938 3.09571 3.31678 3.00853 3.38007 2.93341C3.44254 2.8623 3.51944 2.8053 3.60565 2.76622C3.69186 2.72714 3.78541 2.70686 3.88007 2.70674H5.88007C6.0351 2.70329 6.18648 2.75399 6.30816 2.85012C6.42984 2.94625 6.51421 3.08179 6.54673 3.23341C6.5734 3.41563 6.60673 3.59563 6.64673 3.77341C6.72375 4.12484 6.82624 4.47019 6.9534 4.80674L6.02007 5.24007C5.94026 5.27669 5.86848 5.32871 5.80884 5.39314C5.7492 5.45757 5.70287 5.53315 5.67251 5.61554C5.64216 5.69792 5.62838 5.7855 5.63197 5.87322C5.63555 5.96095 5.65643 6.0471 5.6934 6.12674C6.65287 8.18191 8.3049 9.83394 10.3601 10.7934C10.5224 10.8601 10.7044 10.8601 10.8667 10.7934C10.9499 10.7637 11.0263 10.7177 11.0915 10.6582C11.1567 10.5987 11.2095 10.5268 11.2467 10.4467L11.6601 9.51341C12.0047 9.63666 12.3565 9.73907 12.7134 9.82007C12.8912 9.86007 13.0712 9.89341 13.2534 9.92007C13.405 9.9526 13.5406 10.037 13.6367 10.1586C13.7328 10.2803 13.7835 10.4317 13.7801 10.5867L13.7934 12.6667Z" fill="#111212"/>
</svg>
